<svg width="18" height="18" viewBox="0 0 18 18" fill="none" xmlns="http://www.w3.org/2000/svg">
<path opacity="0.4" d="M6.75 5.4V12.5925C6.75 15 8.25 16.5 10.65 16.5H12.5925C14.9925 16.5 16.4925 15 16.4925 12.6V5.4C16.5 3 15 1.5 12.6 1.5H10.65C8.25 1.5 6.75 3 6.75 5.4Z" fill="#1B7FED"/>
<path d="M4.17758 6.09063L1.66508 8.60313C1.44758 8.82063 1.44758 9.18062 1.66508 9.39812L4.17758 11.9106C4.39508 12.1281 4.75508 12.1281 4.97258 11.9106C5.19008 11.6931 5.19008 11.3331 4.97258 11.1156L3.42008 9.56313H11.4376C11.7451 9.56313 12.0001 9.30813 12.0001 9.00063C12.0001 8.69313 11.7451 8.43813 11.4376 8.43813H3.42008L4.97258 6.88563C5.08508 6.77313 5.13758 6.63062 5.13758 6.48812C5.13758 6.34562 5.08508 6.19563 4.97258 6.09063C4.75508 5.86562 4.40258 5.86562 4.17758 6.09063Z" fill="#1B7FED"/>
</svg>
