<svg width="18" height="18" viewBox="0 0 18 18" fill="none" xmlns="http://www.w3.org/2000/svg">
<path opacity="0.4" d="M12.3676 16.5H5.63262C3.00012 16.5 2.43013 14.9925 2.64763 13.1475L3.32262 7.5225C3.49512 6.0675 3.75012 4.875 6.30012 4.875H11.7001C14.2501 4.875 14.5051 6.0675 14.6776 7.5225L15.2401 12.21L15.3526 13.1475C15.3601 13.2075 15.3676 13.2675 15.3751 13.3275C15.5326 15.09 14.9176 16.5 12.3676 16.5Z" fill="#1B7FED"/>
<path d="M12 6.5625C11.6925 6.5625 11.4375 6.3075 11.4375 6V3.375C11.4375 2.565 10.935 2.0625 10.125 2.0625H7.875C7.065 2.0625 6.5625 2.565 6.5625 3.375V6C6.5625 6.3075 6.3075 6.5625 6 6.5625C5.6925 6.5625 5.4375 6.3075 5.4375 6V3.375C5.4375 1.9425 6.4425 0.9375 7.875 0.9375H10.125C11.5575 0.9375 12.5625 1.9425 12.5625 3.375V6C12.5625 6.3075 12.3075 6.5625 12 6.5625Z" fill="#1B7FED"/>
<path d="M15.375 13.3284C15.3525 13.3359 15.33 13.3359 15.3075 13.3359H6C5.6925 13.3359 5.4375 13.0809 5.4375 12.7734C5.4375 12.4584 5.6925 12.2109 6 12.2109H15.24L15.3525 13.1484C15.36 13.2084 15.3675 13.2684 15.375 13.3284Z" fill="#1B7FED"/>
</svg>
