<svg width="28" height="28" viewBox="0 0 28 28" fill="none" xmlns="http://www.w3.org/2000/svg">
<path d="M2.33301 14.7109H22.1663" stroke="white" stroke-width="2" stroke-miterlimit="10" stroke-linecap="round" stroke-linejoin="round"/>
<path d="M25.6663 7.85167V16.0067C25.6663 19.1567 24.9313 20.1717 22.1663 20.335V11.9933C22.1663 8.51667 21.2796 7.64167 17.7563 7.64167H6.74304C6.41638 7.64167 6.11301 7.65333 5.83301 7.665C5.86801 4.34 6.77804 3.5 10.243 3.5H21.2563C24.7796 3.5 25.6663 4.375 25.6663 7.85167Z" stroke="#1B7FED" stroke-width="2" stroke-linecap="round" stroke-linejoin="round"/>
<path d="M6.125 20.7793H8.13163" stroke="#1B7FED" stroke-width="2" stroke-miterlimit="10" stroke-linecap="round" stroke-linejoin="round"/>
<path d="M10.6279 20.7793H14.6413" stroke="#1B7FED" stroke-width="2" stroke-miterlimit="10" stroke-linecap="round" stroke-linejoin="round"/>
<path d="M22.1663 11.9942V20.3359C22.1313 23.6609 21.2213 24.5009 17.7563 24.5009H6.74304C3.21971 24.5009 2.33301 23.6259 2.33301 20.1492V11.9942C2.33301 8.84424 3.06801 7.82925 5.83301 7.66591C6.11301 7.65425 6.41638 7.64258 6.74304 7.64258H17.7563C21.2796 7.64258 22.1663 8.51758 22.1663 11.9942Z" stroke="white" stroke-width="2" stroke-linecap="round" stroke-linejoin="round"/>
</svg>
