<svg width="41" height="40" viewBox="0 0 41 40" fill="none" xmlns="http://www.w3.org/2000/svg">
<path d="M37.7456 20.2179C37.7456 18.791 37.6274 17.7497 37.3718 16.6699H20.7456V23.1102H30.5048C30.3081 24.7107 29.2456 27.121 26.8844 28.7406L26.8513 28.9562L32.1082 32.9472L32.4724 32.9828C35.8173 29.9555 37.7456 25.5012 37.7456 20.2179Z" fill="#4285F4"/>
<path d="M20.7444 37.1877C25.5255 37.1877 29.5393 35.645 32.4711 32.9841L26.8832 28.7418C25.3878 29.7638 23.3809 30.4772 20.7444 30.4772C16.0615 30.4772 12.087 27.4499 10.6702 23.2656L10.4626 23.2829L4.99641 27.4287L4.92493 27.6234C7.83692 33.2925 13.8184 37.1877 20.7444 37.1877Z" fill="#34A853"/>
<path d="M10.6716 23.2658C10.2978 22.186 10.0815 21.029 10.0815 19.8336C10.0815 18.638 10.2978 17.4811 10.652 16.4013L10.6421 16.1713L5.1074 11.959L4.92632 12.0434C3.72614 14.3959 3.03748 17.0376 3.03748 19.8336C3.03748 22.6295 3.72614 25.2711 4.92632 27.6236L10.6716 23.2658Z" fill="#FBBC05"/>
<path d="M20.7444 9.18875C24.0696 9.18875 26.3126 10.5964 27.5916 11.7727L32.5893 6.9906C29.52 4.19466 25.5256 2.47852 20.7444 2.47852C13.8184 2.47852 7.83694 6.37353 4.92493 12.0425L10.6506 16.4004C12.0871 12.2161 16.0616 9.18875 20.7444 9.18875Z" fill="#EB4335"/>
</svg>
