<svg width="16" height="16" viewBox="0 0 16 16" fill="none" xmlns="http://www.w3.org/2000/svg">
<path d="M7.80519 15.8741C6.73741 15.8677 5.68275 15.6384 4.70875 15.2008C3.73475 14.7631 2.86289 14.1269 2.14902 13.3328C1.43515 12.5387 0.895012 11.6043 0.563197 10.5894C0.231383 9.57444 0.115212 8.5014 0.222126 7.43897C0.412097 5.77996 1.1361 4.22763 2.28504 3.01589C3.43398 1.80414 4.94562 0.998622 6.59218 0.720708C7.65591 0.55567 8.74165 0.600135 9.78832 0.851604C10.0639 0.922341 10.3155 1.06581 10.5167 1.267C10.7179 1.4682 10.8613 1.71975 10.9321 1.99535C11.0033 2.26846 10.9996 2.55572 10.9214 2.8269C10.8431 3.09808 10.6931 3.34313 10.4873 3.53624C7.59042 6.18466 7.84077 10.3003 11.0001 12.6939C11.2232 12.8692 11.3954 13.1011 11.4986 13.3655C11.6017 13.6298 11.6322 13.917 11.5868 14.1972C11.5414 14.4773 11.4218 14.7402 11.2404 14.9585C11.059 15.1767 10.8224 15.3424 10.5553 15.4382C9.66745 15.7283 8.73918 15.8754 7.80519 15.8741ZM7.85221 1.89496C7.49588 1.89412 7.14002 1.9211 6.78789 1.97566C5.41792 2.20809 4.1604 2.87887 3.20432 3.88721C2.24823 4.89554 1.64524 6.18694 1.48597 7.56732C1.38689 8.45693 1.47826 9.35744 1.75401 10.209C2.02976 11.0606 2.48358 11.8437 3.08531 12.5064C3.96584 13.4474 5.10064 14.1125 6.3519 14.4208C7.60316 14.7292 8.91704 14.6677 10.134 14.2436C10.1863 14.2239 10.2324 14.1907 10.2677 14.1474C10.303 14.1041 10.3263 14.0522 10.3352 13.9971C10.3441 13.9419 10.3383 13.8854 10.3184 13.8332C10.2984 13.7809 10.2651 13.7349 10.2217 13.6997C6.45429 10.8543 6.15819 5.76274 9.61994 2.60917C9.65946 2.57224 9.68794 2.52506 9.7022 2.47288C9.71645 2.4207 9.71591 2.36559 9.70064 2.3137C9.68747 2.25838 9.65944 2.20772 9.61957 2.16718C9.5797 2.12664 9.52951 2.09777 9.47443 2.08368C8.94326 1.9557 8.39857 1.89233 7.85221 1.89496ZM13.2005 8.24913C13.0589 8.24912 12.9213 8.20179 12.8096 8.11464C12.6979 8.02749 12.6186 7.90552 12.5842 7.76812L12.3567 6.85947L11.4468 6.61483C11.3099 6.578 11.1893 6.49647 11.1041 6.38322C11.0189 6.26997 10.9741 6.13149 10.9766 5.9898C10.9792 5.84811 11.029 5.71134 11.1182 5.60123C11.2075 5.49112 11.3309 5.414 11.469 5.38213L12.3586 5.17561L12.5816 4.28222C12.616 4.14482 12.6954 4.02287 12.8071 3.93574C12.9187 3.8486 13.0563 3.80128 13.198 3.80128C13.3396 3.80128 13.4772 3.8486 13.5889 3.93574C13.7005 4.02287 13.7799 4.14482 13.8143 4.28222L14.0399 5.18324L14.9409 5.40881C15.0783 5.44325 15.2003 5.5226 15.2874 5.63427C15.3745 5.74594 15.4219 5.88352 15.4219 6.02517C15.4219 6.16681 15.3745 6.30439 15.2874 6.41606C15.2003 6.52773 15.0783 6.60709 14.9409 6.64152L14.0399 6.86709L13.8143 7.76812C13.78 7.9051 13.701 8.02675 13.5899 8.11386C13.4787 8.20096 13.3417 8.24856 13.2005 8.24913ZM10.3411 9.51996C10.3411 9.68848 10.4081 9.8501 10.5272 9.96927C10.6464 10.0884 10.808 10.1554 10.9766 10.1554C11.1451 10.1554 11.3067 10.0884 11.4259 9.96927C11.545 9.8501 11.612 9.68848 11.612 9.51996C11.612 9.35144 11.545 9.18982 11.4259 9.07065C11.3067 8.95149 11.1451 8.88454 10.9766 8.88454C10.808 8.88454 10.6464 8.95149 10.5272 9.07065C10.4081 9.18982 10.3411 9.35144 10.3411 9.51996ZM14.1536 12.0616C14.1536 12.2301 14.2206 12.3918 14.3397 12.5109C14.4589 12.6301 14.6205 12.697 14.7891 12.697C14.9576 12.697 15.1192 12.6301 15.2384 12.5109C15.3575 12.3918 15.4245 12.2301 15.4245 12.0616C15.4245 11.8931 15.3575 11.7315 15.2384 11.6123C15.1192 11.4932 14.9576 11.4262 14.7891 11.4262C14.6205 11.4262 14.4589 11.4932 14.3397 11.6123C14.2206 11.7315 14.1536 11.8931 14.1536 12.0616Z" fill="currentColor"/>
</svg>
