<svg width="90" height="90" viewBox="0 0 90 90" fill="none" xmlns="http://www.w3.org/2000/svg">
<path d="M73.7207 64.1902C73.7207 62.4696 72.7943 60.749 71.3384 59.6902C72.3972 58.6313 73.059 57.1755 73.059 55.5872C73.059 54.1313 72.3972 52.6755 71.3384 51.6166C68.559 48.8372 65.9119 50.4255 50.6913 49.896C52.2796 43.9402 51.8825 46.5872 51.8825 41.1607C51.8825 31.499 38.1178 28.8519 38.1178 36.7931C37.8531 39.1755 38.9119 43.2784 36.0001 47.646L31.1031 54.9255C27.7943 50.6902 23.1619 53.0725 7.41191 52.4107C6.75014 52.4107 6.08838 52.9402 6.08838 53.7343V84.0431C6.08838 84.7049 6.61779 85.3666 7.41191 85.3666H26.0737C27.7943 85.3666 29.5148 84.7049 30.706 83.5137C30.8384 83.646 31.1031 83.7784 31.3678 83.7784H33.4854C34.0148 84.1755 35.6031 87.3519 40.3678 87.3519H65.6472C68.8237 87.3519 71.6031 84.8372 71.4707 81.5284C71.4707 80.0725 70.809 78.749 69.7501 77.6902C71.3384 76.6313 72.3972 74.9108 72.3972 72.7931C72.3972 71.4696 71.8678 70.146 70.9413 69.0872C72.5296 68.2931 73.8531 66.3078 73.7207 64.1902ZM22.3678 77.6902C20.9119 77.6902 19.8531 76.499 19.8531 75.1755C19.8531 73.7196 21.0443 72.6608 22.3678 72.6608C23.8237 72.6608 24.8825 73.8519 24.8825 75.1755C24.8825 76.6313 23.6913 77.6902 22.3678 77.6902ZM65.5149 84.7049H40.2354C36.7943 84.7049 35.4707 82.0578 34.9413 81.6607C34.6766 81.396 34.2796 81.2637 33.8825 81.2637H32.559C32.559 53.0725 32.559 63.396 32.559 57.5725L38.2501 49.3666C43.4119 41.6902 38.5148 34.9402 43.0148 34.9402C46.5884 34.9402 49.5001 37.8519 49.5001 41.4255V44.999C48.1766 50.6902 47.3825 51.0872 48.1766 52.0137C48.4413 52.2784 48.8384 52.5431 49.2354 52.5431C67.7649 52.8078 68.1619 51.8813 69.7501 53.4696C71.6031 55.3225 70.2796 58.6313 67.6325 58.6313C59.559 59.0284 56.2501 57.7049 56.2501 59.9549C56.2501 60.6166 56.7796 61.2784 57.5737 61.2784C57.706 61.2784 68.559 61.2784 68.2943 61.2784C70.0148 61.2784 71.3384 62.6019 71.3384 64.3225C71.3384 66.0431 69.8825 67.499 68.1619 67.499C67.8972 67.499 57.309 67.499 57.5737 67.499C56.7796 67.499 56.2501 68.0284 56.2501 68.8225C56.2501 69.6166 56.7796 70.146 57.5737 70.146H66.8384C68.559 70.146 69.8825 71.4696 69.8825 73.1902C69.8825 74.9107 68.2943 76.3666 66.5737 76.3666C66.309 76.3666 57.1766 76.3666 57.4413 76.3666C56.6472 76.3666 56.1178 76.896 56.1178 77.6902C56.1178 78.3519 56.6472 79.0137 57.4413 79.0137H65.7796C67.3678 79.0137 68.8237 80.3372 68.8237 82.0578C68.8237 83.249 67.3678 84.7049 65.5149 84.7049Z" fill="#CFCFCF"/>
<path d="M34.0148 28.4567C33.7501 29.6479 34.2795 30.9714 35.3383 31.6331C36.2648 32.2949 37.5883 32.4273 38.7795 31.8979C46.9854 27.7949 42.7501 28.0596 50.6912 31.8979C53.0736 33.2214 55.853 31.1037 55.4559 28.4567C54.5295 22.1037 54.1324 21.9714 54.5295 21.5743C57.5736 18.0008 60.8824 16.8096 59.9559 13.7655C59.5589 12.5743 58.5001 11.7802 57.3089 11.5155C47.7795 10.0596 52.0148 12.1773 47.6471 4.50079C46.4559 2.11844 43.0148 1.98609 41.8236 4.50079C37.5883 12.839 40.7648 9.79491 32.1618 11.5155C29.5148 11.9126 28.4559 15.2214 30.3089 17.0743C37.0589 23.8243 35.0736 19.589 34.0148 28.4567Z" fill="#CFCFCF"/>
<path d="M84.4414 26.204C83.3826 23.0276 79.8091 23.8217 77.5591 23.1599C76.2356 21.0423 75.8385 17.4688 72.5297 17.4688C69.2209 17.4688 68.8238 21.1746 67.5003 23.1599L63.5297 23.6893C60.6179 24.0864 59.4267 27.7923 61.5444 29.7776L64.4562 32.557C64.3238 35.204 62.6032 38.1158 65.2503 40.1011C67.8973 42.0864 70.1473 39.4393 72.662 38.5129C75.0444 39.4393 77.2944 42.0864 80.0738 40.1011C82.7209 38.1158 81.0003 35.0717 80.8679 32.557C82.0591 30.8364 85.3679 29.3805 84.4414 26.204ZM78.3532 38.1158C77.0297 39.0423 73.7209 35.0717 71.7356 36.1305C68.0297 37.8511 67.6326 38.7776 66.7062 38.1158C65.7797 37.454 66.5738 36.6599 67.1032 32.6893C67.5003 30.4393 62.6032 28.5864 63.1326 26.9982C63.662 25.4099 68.6914 26.6011 69.7503 24.7482L71.7356 20.7776C72.1326 19.9835 73.1914 20.1158 73.4562 20.7776L75.4414 24.7482C76.3679 26.7335 81.5297 25.4099 82.0591 26.9982C82.3238 28.057 81.265 28.3217 78.6179 31.1011C77.0297 32.8217 79.6767 37.057 78.3532 38.1158Z" fill="#CFCFCF"/>
<path d="M9.39726 32.6893L8.7355 36.6599C8.33844 38.9099 10.059 40.8952 12.309 40.8952C13.6326 40.8952 14.2943 40.2335 17.6031 38.6452C19.9855 39.5717 22.2355 42.2188 25.0149 40.2335C27.662 38.2482 25.9414 35.3364 25.809 32.6893C27.2649 30.8364 30.7061 29.3805 29.6473 26.204C28.5884 23.0276 25.0149 23.8217 22.7649 23.1599C21.309 21.0423 21.0443 17.4688 17.7355 17.4688C14.4267 17.4688 14.0296 21.0423 12.7061 23.1599C10.1914 23.8217 6.61785 23.0276 5.55902 26.204C4.5002 29.3805 7.80902 30.704 9.39726 32.6893ZM8.07373 26.9982C8.60314 25.4099 13.6326 26.7335 14.6914 24.7482C16.6767 21.1746 16.5443 20.1158 17.6031 20.1158C19.3237 20.1158 19.5884 25.4099 21.8384 25.6746C25.6767 26.3364 26.7355 25.9393 27.1326 26.9982C27.3973 27.9246 26.8678 27.9246 23.559 31.2335C22.5002 32.2923 23.4267 33.6158 23.8237 37.1893C23.9561 37.9835 23.0296 38.6452 22.3678 38.2482C18.9267 36.6599 18.1326 35.4688 16.809 36.1305L12.8384 38.2482C12.0443 38.6452 11.2502 37.9835 11.3826 37.1893C11.912 33.3511 12.7061 32.2923 11.6473 31.2335C8.86785 28.454 7.80902 28.057 8.07373 26.9982Z" fill="#CFCFCF"/>
</svg>
