
<svg width="20" height="21" viewBox="0 0 20 21" fill="none" xmlns="http://www.w3.org/2000/svg">
<path fill-rule="evenodd" clip-rule="evenodd" d="M18.195 7.1625L19.555 8.7425C20.145 9.4325 20.145 10.5725 19.565 11.2625L18.205 12.8425C17.945 13.1425 17.735 13.7125 17.735 14.1025V15.8025C17.735 16.8625 16.865 17.7325 15.805 17.7325H14.105C13.705 17.7325 13.145 17.9425 12.845 18.2025L11.265 19.5625C10.565 20.1525 9.435 20.1525 8.745 19.5625L7.165 18.2025C6.865 17.9425 6.295 17.7325 5.905 17.7325H4.175C3.115 17.7325 2.245 16.8625 2.245 15.8025V14.0925C2.245 13.7025 2.035 13.1425 1.785 12.8425L0.435 11.2525C-0.145 10.5625 -0.145 9.4425 0.435 8.7525L1.785 7.1625C2.035 6.8625 2.245 6.3025 2.245 5.9125V4.2025C2.245 3.1425 3.115 2.2725 4.175 2.2725H5.905C6.295 2.2725 6.865 2.0625 7.165 1.8125L8.735 0.4425C9.435 -0.1475 10.565 -0.1475 11.255 0.4425L12.835 1.8025C13.135 2.0625 13.705 2.2725 14.095 2.2725H15.795C16.855 2.2725 17.725 3.1425 17.725 4.2025V5.9025C17.725 6.3025 17.935 6.8625 18.195 7.1625Z" fill="#FF8181"/>
</svg>
